# xmcd
#
# Track frame offsets: 
#        150
#        20850
#        43235
#        63815
#        86932
#        106147
#        126955
#        146325
#        169687
#        188200
#        221527
#
# Disc length: 2974 seconds
#
# Revision: 3
# Processed by: cddbd v1.5.2PL0 Copyright (c) Steve Scherf et al.
# Submitted via: ExactAudioCopy v1.0b3
#
DISCID=9e0b9c0b
DTITLE=許茹芸 - 花咲
DYEAR=2001
DGENRE=Pop
TTITLE0=沒有你的聖誕節
TTITLE1=愛只剩一秒
TTITLE2=深淵
TTITLE3=寧願愛你
TTITLE4=捨不得
TTITLE5=完美
TTITLE6=TRY
TTITLE7=憑感覺
TTITLE8=討厭 
TTITLE9=紅色愛情海
TTITLE10=Text
EXTD=YEAR: 2001
EXTT0=
EXTT1=
EXTT2=
EXTT3=
EXTT4=
EXTT5=
EXTT6=
EXTT7=
EXTT8=
EXTT9=
EXTT10=
PLAYORDER=
